HIERARCHY
ROOT hip
{
  OFFSET 0 0 0
  CHANNELS 6 Xposition Yposition Zposition Zrotation Yrotation Xrotation
  JOINT abdomen
  {
    OFFSET 0 20.6881 -0.73152
    CHANNELS 3 Zrotation Xrotation Yrotation
    JOINT chest
    {
      OFFSET 0 11.7043 -0.48768
      CHANNELS 3 Zrotation Xrotation Yrotation
      JOINT neck
      {
        OFFSET 0 22.1894 -2.19456
        CHANNELS 3 Zrotation Xrotation Yrotation
        JOINT head
        {
          OFFSET -0.24384 7.07133 1.2192
          CHANNELS 3 Zrotation Xrotation Yrotation
          JOINT leftEye
          {
            OFFSET 4.14528 8.04674 8.04672
            CHANNELS 3 Zrotation Xrotation Yrotation
            End Site
            {
              OFFSET 1 0 0
            }
          }
          JOINT rightEye
          {
            OFFSET -3.6576 8.04674 8.04672
            CHANNELS 3 Zrotation Xrotation Yrotation
            End Site
            {
              OFFSET 1 0 0
            }
          }
        }
      }
      JOINT rCollar
      {
        OFFSET -2.68224 19.2634 -4.8768
        CHANNELS 3 Zrotation Xrotation Yrotation
        JOINT rShldr
        {
          OFFSET -8.77824 -1.95073 1.46304
          CHANNELS 3 Zrotation Xrotation Yrotation
          JOINT rForeArm
          {
            OFFSET -28.1742 -1.7115 0.48768
            CHANNELS 3 Zrotation Xrotation Yrotation
            JOINT rHand
            {
              OFFSET -22.5879 0.773209 7.07136
              CHANNELS 3 Zrotation Xrotation Yrotation
              JOINT rThumb1
              {
                OFFSET -1.2192 -0.487915 3.41376
                CHANNELS 3 Zrotation Xrotation Yrotation
                JOINT rThumb2
                {
                  OFFSET -3.37035 -0.52449 3.41376
                  CHANNELS 3 Zrotation Xrotation Yrotation
                  End Site
                  {
                    OFFSET -1.78271 -1.18214 1.43049
                  }
                }
              }
              JOINT rIndex1
              {
                OFFSET -7.75947 0.938293 5.60832
                CHANNELS 3 Zrotation Xrotation Yrotation
                JOINT rIndex2
                {
                  OFFSET -2.54057 -0.884171 1.56538
                  CHANNELS 3 Zrotation Xrotation Yrotation
                  End Site
                  {
                    OFFSET -1.62519 -0.234802 1.16502
                  }
                }
              }
              JOINT rMid1
              {
                OFFSET -8.24714 1.18213 3.41376
                CHANNELS 3 Zrotation Xrotation Yrotation
                JOINT rMid2
                {
                  OFFSET -3.10165 -0.590103 1.0647
                  CHANNELS 3 Zrotation Xrotation Yrotation
                  End Site
                  {
                    OFFSET -2.48547 -0.328903 0.83742
                  }
                }
              }
              JOINT rRing1
              {
                OFFSET -8.82822 0.546677 1.51678
                CHANNELS 3 Zrotation Xrotation Yrotation
                JOINT rRing2
                {
                  OFFSET -2.60934 -0.819778 -0.0198488
                  CHANNELS 3 Zrotation Xrotation Yrotation
                  End Site
                  {
                    OFFSET -2.33842 -0.294052 0.168128
                  }
                }
              }
              JOINT rPinky1
              {
                OFFSET -8.27202 -0.0477905 -0.4584
                CHANNELS 3 Zrotation Xrotation Yrotation
                JOINT rPinky2
                {
                  OFFSET -1.82734 -0.647385 -0.700984
                  CHANNELS 3 Zrotation Xrotation Yrotation
                  End Site
                  {
                    OFFSET -1.69225 -0.51767 -0.607171
                  }
                }
              }
            }
          }
        }
      }
      JOINT lCollar
      {
        OFFSET 2.68224 19.2634 -4.8768
        CHANNELS 3 Zrotation Xrotation Yrotation
        JOINT lShldr
        {
          OFFSET 8.77824 -1.95073 1.46304
          CHANNELS 3 Zrotation Xrotation Yrotation
          JOINT lForeArm
          {
            OFFSET 28.1742 -1.7115 0.48768
            CHANNELS 3 Zrotation Xrotation Yrotation
            JOINT lHand
            {
              OFFSET 22.5879 0.773209 7.07136
              CHANNELS 3 Zrotation Xrotation Yrotation
              JOINT lThumb1
              {
                OFFSET 1.2192 -0.487915 3.41376
                CHANNELS 3 Zrotation Xrotation Yrotation
                JOINT lThumb2
                {
                  OFFSET 3.37035 -0.52449 3.41376
                  CHANNELS 3 Zrotation Xrotation Yrotation
                  End Site
                  {
                    OFFSET 1.78271 -1.18214 1.43049
                  }
                }
              }
              JOINT lIndex1
              {
                OFFSET 7.75947 0.938293 5.60832
                CHANNELS 3 Zrotation Xrotation Yrotation
                JOINT lIndex2
                {
                  OFFSET 2.54057 -0.884171 1.56538
                  CHANNELS 3 Zrotation Xrotation Yrotation
                  End Site
                  {
                    OFFSET 1.62519 -0.234802 1.16502
                  }
                }
              }
              JOINT lMid1
              {
                OFFSET 8.24714 1.18213 3.41376
                CHANNELS 3 Zrotation Xrotation Yrotation
                JOINT lMid2
                {
                  OFFSET 3.10165 -0.590103 1.0647
                  CHANNELS 3 Zrotation Xrotation Yrotation
                  End Site
                  {
                    OFFSET 2.48547 -0.328903 0.83742
                  }
                }
              }
              JOINT lRing1
              {
                OFFSET 8.82822 0.546677 1.51678
                CHANNELS 3 Zrotation Xrotation Yrotation
                JOINT lRing2
                {
                  OFFSET 2.60934 -0.819778 -0.0198488
                  CHANNELS 3 Zrotation Xrotation Yrotation
                  End Site
                  {
                    OFFSET 2.33842 -0.294052 0.168128
                  }
                }
              }
              JOINT lPinky1
              {
                OFFSET 8.27202 -0.0477905 -0.4584
                CHANNELS 3 Zrotation Xrotation Yrotation
                JOINT lPinky2
                {
                  OFFSET 1.82734 -0.647385 -0.700984
                  CHANNELS 3 Zrotation Xrotation Yrotation
                  End Site
                  {
                    OFFSET 1.69225 -0.51767 -0.607171
                  }
                }
              }
            }
          }
        }
      }
    }
  }
  JOINT rButtock
  {
    OFFSET -8.77824 4.35084 1.2192
    CHANNELS 3 Zrotation Xrotation Yrotation
    JOINT rThigh
    {
      OFFSET 0 -1.70687 -2.19456
      CHANNELS 3 Zrotation Xrotation Yrotation
      JOINT rShin
      {
        OFFSET 0 -36.8199 0.73152
        CHANNELS 3 Zrotation Xrotation Yrotation
        JOINT rFoot
        {
          OFFSET 0.73152 -45.1104 -5.12064
          CHANNELS 3 Zrotation Xrotation Yrotation
          End Site
          {
            OFFSET -1.1221 -3.69964 12.103
          }
        }
      }
    }
  }
  JOINT lButtock
  {
    OFFSET 8.77824 4.35084 1.2192
    CHANNELS 3 Zrotation Xrotation Yrotation
    JOINT lThigh
    {
      OFFSET 0 -1.70687 -2.19456
      CHANNELS 3 Zrotation Xrotation Yrotation
      JOINT lShin
      {
        OFFSET 0 -36.8199 0.73152
        CHANNELS 3 Zrotation Xrotation Yrotation
        JOINT lFoot
        {
          OFFSET -0.73152 -45.1104 -5.12064
          CHANNELS 3 Zrotation Xrotation Yrotation
          End Site
          {
            OFFSET 1.1221 -3.69964 12.103
          }
        }
      }
    }
  }
}
MOTION
Frames:	7
Frame Time:	0.00833333
4.15241 82.8424 51.4914 -8.1002 7.3205 5.8058 4.34438 4.11318 10.7351 -6.98273 0.52074 3.01895 7.40223 15.4701 8.24624 -6.60278 -5.50698 15.5604 -0.0 0.0 0.0 -0.0 0.0 0.0 -6.55172e-14 6.67917e-14 1.90669e-13 85.2843 19.9485 -17.6765 -19.4894 -53.7318 115.44 -2.2388 -38.4665 -6.4109 -7.42963e-10 -6.96387e-09 4.99903e-10 -1.2981e-09 -1.20603e-08 8.39706e-10 -7.42955e-10 -6.96385e-09 4.99899e-10 7.73091 5.47488 0.417314 -7.42962e-10 -6.96387e-09 4.99907e-10 2.90554 0.965183 0.102902 -7.42957e-10 -6.96387e-09 4.99905e-10 10.2786 0.731801 0.0259123 -7.42968e-10 -6.96386e-09 4.99914e-10 2.22167 -0.733487 -0.20892 -6.5576e-14 6.68042e-14 1.90415e-13 -6.66544 51.5208 -57.9497 15.9058 -55.9471 -123.42 8.4439 -60.551 14.4138 5.49883e-10 -7.25821e-10 -1.89009e-10 9.51978e-10 -1.19517e-09 -2.92635e-10 5.49873e-10 -7.25808e-10 -1.88993e-10 -7.73091 5.47488 -0.417314 5.49884e-10 -7.2582e-10 -1.89012e-10 -2.90554 0.965183 -0.102902 5.49874e-10 -7.2582e-10 -1.8901e-10 -10.2786 0.731801 -0.0259123 5.49887e-10 -7.2582e-10 -1.89015e-10 -2.22167 -0.733487 0.20892 -2.03217e-16 0.0 -3.88251e-19 2.1268 -3.95498 20.821 0.025269 0.254246 0.297272 -8.04802 -6.11438 -31.0187 2.03217e-16 0.0 3.88251e-19 0.437172 -9.68886 -36.7866 -0.0109088 11.8028 -0.272249 4.65023 -8.60733 38.8607
4.11399 82.8422 51.4233 -8.1238 7.3962 5.7997 4.34367 4.37525 10.7978 -7.09993 0.666086 3.05232 7.66589 15.566 8.41745 -7.15956 -4.76886 15.9147 -0.0 0.0 0.0 -0.0 0.0 0.0 -5.32586e-14 9.85929e-14 2.67266e-13 85.4673 19.505 -17.8506 -19.4309 -53.7743 115.578 -2.24511 -38.511 -6.42113 -1.0304e-09 -8.84618e-09 5.24521e-10 -1.79488e-09 -1.529e-08 8.72375e-10 -1.03039e-09 -8.84615e-09 5.24515e-10 7.73091 5.47488 0.417314 -1.0304e-09 -8.84618e-09 5.24524e-10 2.90554 0.965183 0.102902 -1.03039e-09 -8.84618e-09 5.24523e-10 10.2786 0.731801 0.0259123 -1.0304e-09 -8.84618e-09 5.24531e-10 2.22167 -0.733487 -0.20892 -5.32935e-14 9.86019e-14 2.67018e-13 -5.97996 51.0622 -58.5978 15.9377 -55.9304 -123.353 8.55144 -60.7554 14.5372 8.12883e-10 -1.44987e-09 -5.46206e-10 1.42143e-09 -2.42801e-09 -8.91988e-10 8.12869e-10 -1.44985e-09 -5.46187e-10 -7.73091 5.47488 -0.417314 8.12884e-10 -1.44987e-09 -5.46209e-10 -2.90554 0.965183 -0.102902 8.12873e-10 -1.44986e-09 -5.46207e-10 -10.2786 0.731801 -0.0259123 8.12888e-10 -1.44986e-09 -5.46213e-10 -2.22167 -0.733487 0.20892 -2.03217e-16 0.0 -3.88251e-19 2.18159 -4.02771 20.6928 0.0253583 0.279381 0.297353 -8.03537 -6.0775 -30.9499 2.03217e-16 0.0 3.88251e-19 0.540653 -9.80444 -36.6777 -0.0106712 11.8167 -0.275474 4.57178 -8.52951 38.6818
4.05324 82.846 51.3502 -8.2466 7.4663 5.7597 4.3714 4.66564 10.8273 -7.21655 0.802811 3.07647 7.95635 15.7465 8.59593 -7.72588 -4.11129 16.2947 -0.0 0.0 0.0 -0.0 0.0 0.0 -4.29034e-14 7.41817e-14 1.90158e-13 85.5913 19.1209 -17.9829 -19.3793 -53.8118 115.701 -2.25779 -38.5991 -6.44148 -7.87524e-10 -6.7752e-09 4.76468e-10 -1.37469e-09 -1.17387e-08 7.97922e-10 -7.87519e-10 -6.77518e-09 4.76459e-10 7.73091 5.47488 0.417314 -7.87525e-10 -6.7752e-09 4.76468e-10 2.90554 0.965183 0.102902 -7.87517e-10 -6.77521e-09 4.76467e-10 10.2786 0.731801 0.0259123 -7.8753e-10 -6.77521e-09 4.76476e-10 2.22167 -0.733487 -0.20892 -4.29484e-14 7.41863e-14 1.89932e-13 -5.32743 50.5907 -59.1926 15.9636 -55.9168 -123.298 8.67643 -60.9893 14.6804 5.37807e-10 -1.10686e-09 -4.61649e-10 9.45564e-10 -1.86449e-09 -7.63026e-10 5.3779e-10 -1.10684e-09 -4.61623e-10 -7.73091 5.47488 -0.417314 5.37808e-10 -1.10686e-09 -4.61651e-10 -2.90554 0.965183 -0.102902 5.37797e-10 -1.10686e-09 -4.6165e-10 -10.2786 0.731801 -0.0259123 5.37811e-10 -1.10686e-09 -4.61656e-10 -2.22167 -0.733487 0.20892 -2.03217e-16 0.0 -3.88251e-19 2.2817 -4.08287 20.5749 0.0262688 0.302475 0.297549 -8.03164 -6.04805 -30.9001 2.03217e-16 0.0 3.88251e-19 0.69044 -9.90443 -36.553 -0.0107469 11.8197 -0.279399 4.45376 -8.40401 38.4741
4.00572 82.8487 51.2886 -8.3448 7.5519 5.7297 4.4197 4.97382 10.8303 -7.33231 0.932204 3.09336 8.28332 15.9656 8.77666 -8.33789 -3.46308 16.6864 -0.0 0.0 0.0 -0.0 0.0 0.0 -3.26279e-14 1.67975e-14 1.69899e-14 85.6748 18.7759 -18.0824 -19.3269 -53.8497 115.824 -2.27738 -38.7339 -6.4728 -2.13137e-10 -2.22159e-09 3.87009e-10 -3.81405e-10 -3.92942e-09 6.6344e-10 -2.13135e-10 -2.22157e-09 3.86997e-10 7.73091 5.47488 0.417314 -2.13139e-10 -2.22157e-09 3.87002e-10 2.90554 0.965183 0.102902 -2.1313e-10 -2.22158e-09 3.87004e-10 10.2786 0.731801 0.0259123 -2.13144e-10 -2.22159e-09 3.87013e-10 2.22167 -0.733487 -0.20892 -3.2703e-14 1.67967e-14 1.67973e-14 -4.72413 50.1068 -59.733 15.9847 -55.9057 -123.254 8.82638 -61.2643 14.8517 -6.72895e-11 -1.23989e-10 -1.15808e-10 -1.09579e-10 -2.25018e-10 -2.0404e-10 -6.73098e-11 -1.23964e-10 -1.15772e-10 -7.73091 5.47488 -0.417314 -6.72874e-11 -1.23988e-10 -1.15808e-10 -2.90554 0.965183 -0.102902 -6.72974e-11 -1.23986e-10 -1.15809e-10 -10.2786 0.731801 -0.0259123 -6.72858e-11 -1.23982e-10 -1.15816e-10 -2.22167 -0.733487 0.20892 -2.03217e-16 0.0 -3.88251e-19 2.41403 -4.13051 20.4606 0.0277495 0.324202 0.297812 -8.03378 -6.02307 -30.8633 2.03217e-16 0.0 3.88251e-19 0.873126 -9.99836 -36.4219 -0.0110324 11.8151 -0.283808 4.30826 -8.24321 38.2489
3.96565 82.8492 51.2386 -8.3945 7.6693 5.721 4.47121 5.2512 10.8296 -7.45032 1.06877 3.10953 8.64285 16.1773 8.94199 -8.97652 -2.73777 17.0624 -0.0 0.0 0.0 -0.0 0.0 0.0 -2.29234e-14 -4.0239e-14 -1.66213e-13 85.7554 18.43 -18.1615 -19.2791 -53.884 115.937 -2.30208 -38.9029 -6.51218 3.74024e-10 2.38343e-09 2.79869e-10 6.34506e-10 3.97396e-09 4.98676e-10 3.74023e-10 2.38344e-09 2.79854e-10 7.73091 5.47488 0.417314 3.74022e-10 2.38346e-09 2.79856e-10 2.90554 0.965183 0.102902 3.74031e-10 2.38344e-09 2.7986e-10 10.2786 0.731801 0.0259123 3.74016e-10 2.38343e-09 2.7987e-10 2.22167 -0.733487 -0.20892 -2.3028e-14 -4.02449e-14 -1.66376e-13 -4.15952 49.6468 -60.2418 16.0019 -55.8966 -123.218 8.9794 -61.5386 15.0259 -6.70148e-10 8.97485e-10 2.57501e-10 -1.16221e-09 1.48271e-09 4.02476e-10 -6.70171e-10 8.97515e-10 2.57546e-10 -7.73091 5.47488 -0.417314 -6.70145e-10 8.97486e-10 2.57503e-10 -2.90554 0.965183 -0.102902 -6.70154e-10 8.97489e-10 2.575e-10 -10.2786 0.731801 -0.0259123 -6.70146e-10 8.97494e-10 2.57492e-10 -2.22167 -0.733487 0.20892 -2.03217e-16 0.0 -3.88251e-19 2.54904 -4.18038 20.362 0.0291215 0.341005 0.298033 -8.04595 -6.01309 -30.8498 2.03217e-16 0.0 3.88251e-19 1.04541 -10.0867 -36.3505 -0.0114716 11.8049 -0.28769 4.17621 -8.08938 38.0757
3.91098 82.8505 51.1917 -8.479 7.7988 5.7268 4.50815 5.44911 10.8473 -7.57377 1.22699 3.13153 9.03185 16.336 9.07393 -9.62354 -1.84922 17.3965 -0.0 0.0 0.0 -0.0 0.0 0.0 -1.42815e-14 -6.3607e-14 -2.73428e-13 85.8703 18.0431 -18.2328 -19.2415 -53.9108 116.026 -2.33005 -39.093 -6.55668 6.55221e-10 4.6086e-09 1.78773e-10 1.12255e-09 7.8076e-09 3.33374e-10 6.55218e-10 4.6086e-09 1.78757e-10 7.73091 5.47488 0.417314 6.55218e-10 4.60863e-09 1.78757e-10 2.90554 0.965183 0.102902 6.55229e-10 4.6086e-09 1.78761e-10 10.2786 0.731801 0.0259123 6.55214e-10 4.6086e-09 1.78773e-10 2.22167 -0.733487 -0.20892 -1.43941e-14 -6.36163e-14 -2.73577e-13 -3.6226 49.246 -60.7414 16.0165 -55.8889 -123.187 9.11159 -61.7707 15.176 -9.38512e-10 1.3563e-09 4.24461e-10 -1.63053e-09 2.251e-09 6.74026e-10 -9.38534e-10 1.35633e-09 4.24509e-10 -7.73091 5.47488 -0.417314 -9.38508e-10 1.35631e-09 4.24464e-10 -2.90554 0.965183 -0.102902 -9.38516e-10 1.35631e-09 4.2446e-10 -10.2786 0.731801 -0.0259123 -9.3851e-10 1.35631e-09 4.24451e-10 -2.22167 -0.733487 0.20892 -2.03217e-16 0.0 -3.88251e-19 2.65717 -4.24225 20.2912 0.0297058 0.349328 0.298099 -8.07229 -6.02866 -30.8701 2.03217e-16 0.0 3.88251e-19 1.16363 -10.1697 -36.405 -0.0120075 11.791 -0.290034 4.09722 -7.9859 38.0239
3.86829 82.8494 51.1469 -8.5389 7.9169 5.7698 4.52577 5.5352 10.8912 -7.7015 1.42914 3.16276 9.45192 16.4331 9.15979 -10.2811 -0.779307 17.6698 -0.0 0.0 0.0 -0.0 0.0 0.0 -2.85087e-16 -3.26203e-14 -2.68397e-13 86.0267 17.6043 -18.2931 -19.2188 -53.9269 116.079 -2.36816 -39.3501 -6.61714 4.77711e-10 3.3756e-09 5.42211e-11 8.20245e-10 5.74099e-09 1.10919e-10 4.7771e-10 3.3756e-09 5.42083e-11 7.73091 5.47488 0.417314 4.77708e-10 3.37563e-09 5.42079e-11 2.90554 0.965183 0.102902 4.77719e-10 3.37561e-09 5.42124e-11 10.2786 0.731801 0.0259123 4.77705e-10 3.3756e-09 5.42237e-11 2.22167 -0.733487 -0.20892 -3.66743e-16 -3.26317e-14 -2.68561e-13 -3.10636 48.9041 -61.2525 16.0298 -55.8818 -123.158 9.21936 -61.957 15.2982 -6.90706e-10 9.39268e-10 2.66821e-10 -1.1968e-09 1.55611e-09 4.18087e-10 -6.90724e-10 9.39295e-10 2.66862e-10 -7.73091 5.47488 -0.417314 -6.90703e-10 9.39271e-10 2.66823e-10 -2.90554 0.965183 -0.102902 -6.9071e-10 9.39275e-10 2.66819e-10 -10.2786 0.731801 -0.0259123 -6.90706e-10 9.3928e-10 2.66811e-10 -2.22167 -0.733487 0.20892 -2.03217e-16 0.0 -3.88251e-19 2.73081 -4.33002 20.2533 0.029072 0.346362 0.298096 -8.11958 -6.08138 -30.9361 2.03217e-16 0.0 3.88251e-19 1.20338 -10.2463 -36.6707 -0.0127555 11.7695 -0.290061 4.10045 -7.96068 38.1732
